<svg width="26" height="30" viewBox="0 0 26 30" fill="none" xmlns="http://www.w3.org/2000/svg">
<path fill-rule="evenodd" clip-rule="evenodd" d="M14.6129 24.2577V25.5793C14.6129 26.718 15.5185 27.633 16.6455 27.633H20.6101C21.1132 27.633 21.5359 28.06 21.5359 28.5683V29.7477H4.32899V28.5683C4.32899 28.06 4.73149 27.633 5.25474 27.633H9.21937C10.3464 27.633 11.252 26.718 11.252 25.5793V24.2577C8.67599 23.973 6.28111 23.058 4.38936 21.594C2.05486 19.764 0.786987 17.3443 0.786987 14.762C0.786987 12.1593 2.05486 9.73967 4.38936 7.93C6.28111 6.44567 8.67599 5.53067 11.252 5.246V4.16833C11.252 3.02967 10.3464 2.09433 9.21937 2.09433H5.25474C4.73149 2.09433 4.32899 1.68767 4.32899 1.17933V0H21.5359V1.17933C21.5359 1.68767 21.1132 2.09433 20.6101 2.09433H16.6455C15.5185 2.09433 14.6129 3.02967 14.6129 4.16833V5.246C17.1889 5.53067 19.5837 6.44567 21.4755 7.93C23.81 9.73967 25.0779 12.1593 25.0779 14.762C25.0779 17.3443 23.81 19.764 21.4755 21.594C19.5837 23.058 17.1889 23.973 14.6129 24.2577ZM14.6129 6.36433V23.1393C19.9057 22.509 22.2402 18.9913 22.2402 14.762C22.2402 10.5123 19.9057 6.99467 14.6129 6.36433ZM11.252 23.1393V6.36433C5.95911 6.99467 3.66486 10.5123 3.66486 14.762C3.66486 18.9913 5.95911 22.509 11.252 23.1393Z" fill="#333333"/>
</svg>
