<svg width="147" height="31" viewBox="0 0 147 31" fill="none" xmlns="http://www.w3.org/2000/svg">
<path fill-rule="evenodd" clip-rule="evenodd" d="M24.6129 24.2577V25.5793C24.6129 26.718 25.5185 27.633 26.6455 27.633H30.6101C31.1132 27.633 31.5359 28.06 31.5359 28.5683V29.7477H14.329V28.5683C14.329 28.06 14.7315 27.633 15.2547 27.633H19.2194C20.3464 27.633 21.252 26.718 21.252 25.5793V24.2577C18.676 23.973 16.2811 23.058 14.3894 21.594C12.0549 19.764 10.787 17.3443 10.787 14.762C10.787 12.1593 12.0549 9.73967 14.3894 7.93C16.2811 6.44567 18.676 5.53067 21.252 5.246V4.16833C21.252 3.02967 20.3464 2.09433 19.2194 2.09433H15.2547C14.7315 2.09433 14.329 1.68767 14.329 1.17933V0H31.5359V1.17933C31.5359 1.68767 31.1132 2.09433 30.6101 2.09433H26.6455C25.5185 2.09433 24.6129 3.02967 24.6129 4.16833V5.246C27.1889 5.53067 29.5837 6.44567 31.4755 7.93C33.81 9.73967 35.0779 12.1593 35.0779 14.762C35.0779 17.3443 33.81 19.764 31.4755 21.594C29.5837 23.058 27.1889 23.973 24.6129 24.2577ZM24.6129 6.36433V23.1393C29.9057 22.509 32.2402 18.9913 32.2402 14.762C32.2402 10.5123 29.9057 6.99467 24.6129 6.36433ZM21.252 23.1393V6.36433C15.9591 6.99467 13.6649 10.5123 13.6649 14.762C13.6649 18.9913 15.9591 22.509 21.252 23.1393Z" fill="#333333"/>
<path fill-rule="evenodd" clip-rule="evenodd" d="M0 29.7476V5.10364H18.4144V6.34397C18.4144 8.1943 16.9251 9.67864 15.0938 9.67864H5.67525V16.1853H5.59475V20.7603H5.67525V29.7476H0ZM13.9869 20.7603C15.8183 20.7603 17.2874 19.2556 17.2874 17.4053V16.1853H5.67525V20.7603H13.9869Z" fill="#333333"/>
<path d="M40.1494 30.1544C38.1905 30.1544 36.3122 29.89 34.5144 29.3614C32.7165 28.8327 31.2743 28.1481 30.1875 27.3077L32.0994 23.0174C33.119 23.7629 34.3467 24.3797 35.7822 24.8677C37.2312 25.3421 38.687 25.5794 40.1494 25.5794C41.263 25.5794 42.1619 25.4641 42.8461 25.2337C43.5304 25.0032 44.0335 24.6915 44.3555 24.2984C44.6775 23.9188 44.8385 23.4715 44.8385 22.9564C44.8385 22.2921 44.5836 21.7702 44.0738 21.3907C43.5639 20.9976 42.8864 20.679 42.0411 20.435C41.1959 20.191 40.2701 19.9538 39.2639 19.7234C38.271 19.5065 37.2715 19.2421 36.2652 18.9304C35.2456 18.605 34.3131 18.178 33.4679 17.6494C32.6226 17.1207 31.9518 16.4294 31.4554 15.5754C30.959 14.7214 30.7107 13.6505 30.7107 12.3627C30.7107 10.9529 31.0797 9.66513 31.8176 8.49935C32.5555 7.34713 33.6892 6.42535 35.2188 5.73402C36.7348 5.04269 38.64 4.69702 40.9342 4.69702C42.4772 4.69702 43.9932 4.88002 45.4825 5.24602C46.9852 5.62558 48.2933 6.1678 49.4069 6.87269L47.6359 11.163C46.5357 10.5259 45.4087 10.0515 44.2549 9.73969C43.0876 9.42791 41.974 9.27202 40.9141 9.27202C39.8005 9.27202 38.9016 9.39402 38.2174 9.63802C37.5465 9.88202 37.0568 10.2141 36.7482 10.6344C36.4397 11.0546 36.2854 11.5222 36.2854 12.0374C36.2854 12.7016 36.5403 13.2302 37.0501 13.6234C37.56 14.03 38.2308 14.3418 39.0626 14.5587C39.8945 14.7756 40.8202 14.9992 41.8399 15.2297C42.8595 15.4466 43.8725 15.7245 44.8787 16.0634C45.8716 16.3887 46.7906 16.8021 47.6359 17.3037C48.4677 17.8052 49.1452 18.483 49.6685 19.337C50.1917 20.191 50.4534 21.2551 50.4534 22.5294C50.4534 23.912 50.071 25.1795 49.3062 26.3317C48.5549 27.4839 47.4145 28.4057 45.885 29.097C44.3555 29.8019 42.4436 30.1544 40.1494 30.1544Z" fill="#333333"/>
<path d="M59.0065 29.7476V9.75997H51.2181V5.10364H72.45C72.45 7.68597 70.3973 9.75997 67.8615 9.75997H64.6616V25.0913C64.6616 27.6533 62.5888 29.7476 60.053 29.7476H59.0065Z" fill="#026AB2"/>
<path fill-rule="evenodd" clip-rule="evenodd" d="M75.4889 29.402V4.77832H93.9033V5.46965C93.9033 7.60465 92.1725 9.35332 90.0393 9.35332H81.0836V14.6603H81.0031V19.1337H81.0836V24.827H94.346V25.5183C94.346 27.6533 92.6354 29.402 90.5021 29.402H75.4889ZM88.872 19.1337C91.0053 19.1337 92.736 17.385 92.736 15.25V14.6603H81.0836V19.1337H88.872Z" fill="#026AB2"/>
<path d="M110.828 30.5C108.95 30.5 107.206 30.1882 105.596 29.5647C103.986 28.9411 102.591 28.0532 101.41 26.901C100.216 25.7488 99.29 24.4 98.6326 22.8547C97.9752 21.3093 97.6465 19.6081 97.6465 17.751C97.6465 15.9074 97.9752 14.2062 98.6326 12.6473C99.29 11.102 100.216 9.75323 101.41 8.60101C102.617 7.46234 104.026 6.58123 105.636 5.95767C107.246 5.33412 108.99 5.02234 110.869 5.02234C112.988 5.02234 114.907 5.38834 116.624 6.12034C118.342 6.86589 119.777 7.95712 120.931 9.39401L117.268 12.7693C116.463 11.8069 115.544 11.0749 114.511 10.5733C113.478 10.0853 112.358 9.84134 111.15 9.84134C110.01 9.84134 108.963 10.0379 108.011 10.431C107.058 10.8106 106.233 11.3528 105.535 12.0577C104.851 12.7626 104.315 13.5962 103.925 14.5587C103.536 15.5211 103.342 16.5852 103.342 17.751C103.342 18.9303 103.536 20.0012 103.925 20.9637C104.315 21.9261 104.851 22.7598 105.535 23.4647C106.233 24.156 107.058 24.6982 108.011 25.0913C108.963 25.4845 110.01 25.681 111.15 25.681C112.358 25.681 113.478 25.4234 114.511 24.9083C115.544 24.4068 116.463 23.6748 117.268 22.7123L120.931 26.0877C119.777 27.5246 118.342 28.6158 116.624 29.3613C114.907 30.1205 112.975 30.5 110.828 30.5Z" fill="#026AB2"/>
<path d="M130.048 5.44934V30.073H124.372V5.44934H130.048ZM141.519 15.1483V19.9673H129.605V15.1483H141.519ZM146.731 5.44934V30.073H141.096V5.44934H146.731Z" fill="#026AB2"/>
</svg>
