<svg width="113" height="43" viewBox="0 0 113 43" fill="none" xmlns="http://www.w3.org/2000/svg">
<path fill-rule="evenodd" clip-rule="evenodd" d="M22.2328 27.8784V28.81C22.2328 29.6127 22.8684 30.2577 23.6594 30.2577H26.442C26.7951 30.2577 27.0918 30.5587 27.0918 30.917V31.7484H15.0149V30.917C15.0149 30.5587 15.2974 30.2577 15.6646 30.2577H18.4473C19.2383 30.2577 19.8739 29.6127 19.8739 28.81V27.8784C18.0659 27.6777 16.385 27.0327 15.0573 26.0007C13.4188 24.7107 12.5289 23.005 12.5289 21.1847C12.5289 19.35 13.4188 17.6444 15.0573 16.3687C16.385 15.3224 18.0659 14.6774 19.8739 14.4767V13.717C19.8739 12.9144 19.2383 12.255 18.4473 12.255H15.6646C15.2974 12.255 15.0149 11.9684 15.0149 11.61V10.7787H27.0918V11.61C27.0918 11.9684 26.7951 12.255 26.442 12.255H23.6594C22.8684 12.255 22.2328 12.9144 22.2328 13.717V14.4767C24.0408 14.6774 25.7216 15.3224 27.0494 16.3687C28.6879 17.6444 29.5778 19.35 29.5778 21.1847C29.5778 23.005 28.6879 24.7107 27.0494 26.0007C25.7216 27.0327 24.0408 27.6777 22.2328 27.8784ZM22.2328 15.265V27.09C25.9476 26.6457 27.5861 24.166 27.5861 21.1847C27.5861 18.189 25.9476 15.7094 22.2328 15.265ZM19.8739 27.09V15.265C16.159 15.7094 14.5488 18.189 14.5488 21.1847C14.5488 24.166 16.159 26.6457 19.8739 27.09Z" fill="#E5E6E7"/>
<path fill-rule="evenodd" clip-rule="evenodd" d="M4.95787 31.7483V14.3763H17.8822V15.2507C17.8822 16.555 16.837 17.6013 15.5516 17.6013H8.94112V22.188H8.88462V25.413H8.94112V31.7483H4.95787ZM14.7747 25.413C16.0601 25.413 17.0912 24.3523 17.0912 23.048V22.188H8.94112V25.413H14.7747Z" fill="#E6E7E8"/>
<path d="M33.1372 32.035C31.7624 32.035 30.4441 31.8487 29.1822 31.476C27.9204 31.1033 26.9081 30.6208 26.1454 30.0283L27.4872 27.004C28.2029 27.5295 29.0645 27.9643 30.0721 28.3083C31.0891 28.6428 32.1108 28.81 33.1372 28.81C33.9188 28.81 34.5497 28.7288 35.03 28.5663C35.5102 28.4039 35.8634 28.1841 36.0894 27.907C36.3154 27.6394 36.4284 27.3241 36.4284 26.961C36.4284 26.4928 36.2495 26.1249 35.8916 25.8573C35.5338 25.5802 35.0582 25.3557 34.465 25.1837C33.8717 25.0117 33.222 24.8444 32.5157 24.682C31.8189 24.5291 31.1174 24.3428 30.4111 24.123C29.6955 23.8937 29.041 23.5927 28.4477 23.22C27.8545 22.8473 27.3837 22.36 27.0352 21.758C26.6868 21.156 26.5126 20.4011 26.5126 19.4933C26.5126 18.4995 26.7716 17.5918 27.2895 16.77C27.8074 15.9578 28.6031 15.308 29.6766 14.8207C30.7407 14.3333 32.0779 14.0897 33.6881 14.0897C34.771 14.0897 35.8351 14.2187 36.8804 14.4767C37.935 14.7442 38.8532 15.1264 39.6347 15.6233L38.3917 18.6477C37.6196 18.1985 36.8286 17.8641 36.0187 17.6443C35.1995 17.4245 34.4179 17.3147 33.674 17.3147C32.8924 17.3147 32.2615 17.4007 31.7812 17.5727C31.3104 17.7447 30.9667 17.9788 30.7501 18.275C30.5335 18.5712 30.4252 18.9009 30.4252 19.264C30.4252 19.7322 30.6042 20.1049 30.962 20.382C31.3198 20.6687 31.7907 20.8884 32.3745 21.0413C32.9583 21.1942 33.6081 21.3519 34.3237 21.5143C35.0394 21.6672 35.7504 21.8631 36.4566 22.102C37.1535 22.3313 37.7985 22.6228 38.3917 22.9763C38.9756 23.3299 39.4511 23.8077 39.8184 24.4097C40.1856 25.0117 40.3692 25.7618 40.3692 26.66C40.3692 27.6347 40.1009 28.5281 39.5641 29.3403C39.0368 30.1525 38.2364 30.8023 37.1629 31.2897C36.0894 31.7865 34.7475 32.035 33.1372 32.035Z" fill="#E6E7E8"/>
<path d="M46.3724 31.7483V17.6587H40.906V14.3763H55.8079C55.8079 16.1967 54.3671 17.6587 52.5874 17.6587H50.3415V28.466C50.3415 30.272 48.8866 31.7483 47.1069 31.7483H46.3724Z" fill="#026AB2"/>
<path fill-rule="evenodd" clip-rule="evenodd" d="M57.9408 31.5047V14.147H70.8651V14.6344C70.8651 16.1394 69.6504 17.372 68.1531 17.372H61.8675V21.113H61.811V24.2664H61.8675V28.2797H71.1759V28.767C71.1759 30.272 69.9752 31.5047 68.478 31.5047H57.9408ZM67.3339 24.2664C68.8311 24.2664 70.0459 23.0337 70.0459 21.5287V21.113H61.8675V24.2664H67.3339Z" fill="#026AB2"/>
<path d="M82.7442 32.2787C81.4259 32.2787 80.2017 32.0589 79.0717 31.6194C77.9417 31.1798 76.9624 30.5539 76.1337 29.7417C75.2957 28.9295 74.6459 27.9787 74.1845 26.8894C73.7231 25.8 73.4924 24.6008 73.4924 23.2917C73.4924 21.9921 73.7231 20.7929 74.1845 19.694C74.6459 18.6047 75.2957 17.6539 76.1337 16.8417C76.9812 16.039 77.97 15.4179 79.1 14.9784C80.23 14.5388 81.4542 14.319 82.7725 14.319C84.2603 14.319 85.6069 14.577 86.8122 15.093C88.0176 15.6186 89.0252 16.3878 89.835 17.4007L87.2642 19.78C86.6992 19.1016 86.0542 18.5856 85.3291 18.232C84.604 17.888 83.8178 17.716 82.9703 17.716C82.1698 17.716 81.4353 17.8546 80.7667 18.1317C80.0982 18.3993 79.519 18.7815 79.0294 19.2784C78.5491 19.7753 78.1725 20.3629 77.8994 21.0414C77.6263 21.7198 77.4897 22.4699 77.4897 23.2917C77.4897 24.123 77.6263 24.8779 77.8994 25.5564C78.1725 26.2348 78.5491 26.8225 79.0294 27.3194C79.519 27.8067 80.0982 28.1889 80.7667 28.466C81.4353 28.7431 82.1698 28.8817 82.9703 28.8817C83.8178 28.8817 84.604 28.7001 85.3291 28.337C86.0542 27.9835 86.6992 27.4675 87.2642 26.789L89.835 29.1684C89.0252 30.1813 88.0176 30.9505 86.8122 31.476C85.6069 32.0111 84.2509 32.2787 82.7442 32.2787Z" fill="#026AB2"/>
<path d="M96.2336 14.62V31.9777H92.2504V14.62H96.2336ZM104.285 21.457V24.854H95.9229V21.457H104.285ZM107.943 14.62V31.9777H103.988V14.62H107.943Z" fill="#026AB2"/>
</svg>
