<svg width="18" height="22" viewBox="0 0 18 22" fill="none" xmlns="http://www.w3.org/2000/svg">
<path fill-rule="evenodd" clip-rule="evenodd" d="M10.2328 17.8783V18.81C10.2328 19.6127 10.8684 20.2577 11.6594 20.2577H14.442C14.7951 20.2577 15.0918 20.5587 15.0918 20.917V21.7483H3.01488V20.917C3.01488 20.5587 3.29738 20.2577 3.66463 20.2577H6.44725C7.23825 20.2577 7.87388 19.6127 7.87388 18.81V17.8783C6.06588 17.6777 4.385 17.0327 3.05725 16.0007C1.41875 14.7107 0.528877 13.005 0.528877 11.1847C0.528877 9.35 1.41875 7.64433 3.05725 6.36867C4.385 5.32233 6.06588 4.67733 7.87388 4.47667V3.717C7.87388 2.91433 7.23825 2.255 6.44725 2.255H3.66463C3.29738 2.255 3.01488 1.96833 3.01488 1.61V0.778666H15.0918V1.61C15.0918 1.96833 14.7951 2.255 14.442 2.255H11.6594C10.8684 2.255 10.2328 2.91433 10.2328 3.717V4.47667C12.0408 4.67733 13.7216 5.32233 15.0494 6.36867C16.6879 7.64433 17.5778 9.35 17.5778 11.1847C17.5778 13.005 16.6879 14.7107 15.0494 16.0007C13.7216 17.0327 12.0408 17.6777 10.2328 17.8783ZM10.2328 5.265V17.09C13.9476 16.6457 15.5861 14.166 15.5861 11.1847C15.5861 8.189 13.9476 5.70933 10.2328 5.265ZM7.87388 17.09V5.265C4.159 5.70933 2.54875 8.189 2.54875 11.1847C2.54875 14.166 4.159 16.6457 7.87388 17.09Z" fill="#E5E6E7"/>
</svg>
